<svg width="70" height="59" viewBox="0 0 70 59" fill="none" xmlns="http://www.w3.org/2000/svg">
<path d="M43.8213 41.5652C43.3824 41.5652 42.9436 41.6522 42.5047 41.7391L40.3103 32.6957C40.2226 32.2609 39.8715 32 39.4326 32H36.7994C36.2727 32 35.9216 32.3478 35.9216 32.8696C35.9216 33.3913 36.2727 33.7391 36.7994 33.7391H38.7304L39.7837 38.087H30.5674C30.4796 37.3913 30.7429 36.6087 31.2696 36.087C31.5329 35.8261 31.6207 35.4783 31.4451 35.1304C31.3574 34.7826 31.0063 34.6087 30.6552 34.6087H27.1442C26.6176 34.6087 26.2665 34.9565 26.2665 35.4783C26.2665 36 26.6176 36.3478 27.1442 36.3478H29.0752C28.8119 37.1304 28.7241 37.913 28.8997 38.6957L27.5831 41.7391C27.1442 41.6522 26.7053 41.5652 26.2665 41.5652C23.3699 41.5652 21 43.913 21 46.7826C21 49.6522 23.3699 52 26.2665 52C28.8997 52 31.0063 50.087 31.4451 47.6522H34.1661C34.2539 47.6522 34.4295 47.6522 34.5172 47.5652C34.605 47.4783 34.6928 47.3913 34.7806 47.3043L40.3103 40.2609L40.837 42.4348C39.4326 43.3913 38.4671 44.9565 38.4671 46.7826C38.4671 49.6522 40.837 52 43.7335 52C46.6301 52 49 49.6522 49 46.7826C49 43.913 46.7179 41.5652 43.8213 41.5652ZM29.8652 40.8696L32.674 45.913H31.4451C31.1818 44.4348 30.3918 43.2174 29.163 42.4348L29.8652 40.8696ZM28.4608 44.087C29.0752 44.5217 29.5141 45.2174 29.6897 45.913H27.5831L28.4608 44.087ZM26.2665 50.2609C24.3354 50.2609 22.7555 48.6957 22.7555 46.7826C22.7555 44.8696 24.3354 43.3043 26.2665 43.3043C26.442 43.3043 26.6176 43.3043 26.8809 43.3913L25.4765 46.4348C25.3887 46.6957 25.3887 47.0435 25.5643 47.3043C25.7398 47.5652 26.0031 47.6522 26.2665 47.6522H29.6897C29.2508 49.1304 27.9342 50.2609 26.2665 50.2609ZM34.2539 45.2174L31.3574 39.8261H38.5549L34.2539 45.2174ZM43.8213 50.2609C41.8903 50.2609 40.3103 48.6957 40.3103 46.7826C40.3103 45.8261 40.7492 44.9565 41.3636 44.3478L41.7147 45.8261C41.7147 46 41.8025 46.1739 41.9781 46.2609L43.2069 47.3913C43.3824 47.5652 43.558 47.6522 43.8213 47.6522C44.0846 47.6522 44.2602 47.5652 44.4357 47.3913C44.7868 47.0435 44.7868 46.5217 44.4357 46.1739L43.3824 45.2174L42.9436 43.4783C43.2069 43.3913 43.558 43.3913 43.8213 43.3913C45.7523 43.3913 47.3323 44.9565 47.3323 46.8696C47.3323 48.7826 45.7523 50.2609 43.8213 50.2609Z" fill="#E9973F"/>
<path d="M35 7V17" stroke="#48784A" stroke-width="4" stroke-linecap="round"/>
<path d="M12 14L17 21" stroke="#48784A" stroke-width="4" stroke-linecap="round"/>
<path d="M58 14L53 21" stroke="#48784A" stroke-width="4" stroke-linecap="round"/>
<path d="M43.8213 41.5652C43.3824 41.5652 42.9436 41.6522 42.5047 41.7391L40.3103 32.6957C40.2226 32.2609 39.8715 32 39.4326 32H36.7994C36.2727 32 35.9216 32.3478 35.9216 32.8696C35.9216 33.3913 36.2727 33.7391 36.7994 33.7391H38.7304L39.7837 38.087H30.5674C30.4796 37.3913 30.7429 36.6087 31.2696 36.087C31.5329 35.8261 31.6207 35.4783 31.4451 35.1304C31.3574 34.7826 31.0063 34.6087 30.6552 34.6087H27.1442C26.6176 34.6087 26.2665 34.9565 26.2665 35.4783C26.2665 36 26.6176 36.3478 27.1442 36.3478H29.0752C28.8119 37.1304 28.7241 37.913 28.8997 38.6957L27.5831 41.7391C27.1442 41.6522 26.7053 41.5652 26.2665 41.5652C23.3699 41.5652 21 43.913 21 46.7826C21 49.6522 23.3699 52 26.2665 52C28.8997 52 31.0063 50.087 31.4451 47.6522H34.1661C34.2539 47.6522 34.4295 47.6522 34.5172 47.5652C34.605 47.4783 34.6928 47.3913 34.7806 47.3043L40.3103 40.2609L40.837 42.4348C39.4326 43.3913 38.4671 44.9565 38.4671 46.7826C38.4671 49.6522 40.837 52 43.7335 52C46.6301 52 49 49.6522 49 46.7826C49 43.913 46.7179 41.5652 43.8213 41.5652ZM29.8652 40.8696L32.674 45.913H31.4451C31.1818 44.4348 30.3918 43.2174 29.163 42.4348L29.8652 40.8696ZM28.4608 44.087C29.0752 44.5217 29.5141 45.2174 29.6897 45.913H27.5831L28.4608 44.087ZM26.2665 50.2609C24.3354 50.2609 22.7555 48.6957 22.7555 46.7826C22.7555 44.8696 24.3354 43.3043 26.2665 43.3043C26.442 43.3043 26.6176 43.3043 26.8809 43.3913L25.4765 46.4348C25.3887 46.6957 25.3887 47.0435 25.5643 47.3043C25.7398 47.5652 26.0031 47.6522 26.2665 47.6522H29.6897C29.2508 49.1304 27.9342 50.2609 26.2665 50.2609ZM34.2539 45.2174L31.3574 39.8261H38.5549L34.2539 45.2174ZM43.8213 50.2609C41.8903 50.2609 40.3103 48.6957 40.3103 46.7826C40.3103 45.8261 40.7492 44.9565 41.3636 44.3478L41.7147 45.8261C41.7147 46 41.8025 46.1739 41.9781 46.2609L43.2069 47.3913C43.3824 47.5652 43.558 47.6522 43.8213 47.6522C44.0846 47.6522 44.2602 47.5652 44.4357 47.3913C44.7868 47.0435 44.7868 46.5217 44.4357 46.1739L43.3824 45.2174L42.9436 43.4783C43.2069 43.3913 43.558 43.3913 43.8213 43.3913C45.7523 43.3913 47.3323 44.9565 47.3323 46.8696C47.3323 48.7826 45.7523 50.2609 43.8213 50.2609Z" fill="#E9973F"/>
<path d="M35 7V17" stroke="#48784A" stroke-width="4" stroke-linecap="round"/>
<path d="M12 14L17 21" stroke="#48784A" stroke-width="4" stroke-linecap="round"/>
<path d="M58 14L53 21" stroke="#48784A" stroke-width="4" stroke-linecap="round"/>
</svg>
